<?xml version="1.0" standalone="no"?>
<!DOCTYPE svg PUBLIC "-//W3C//DTD SVG 20010904//EN"
 "http://www.w3.org/TR/2001/REC-SVG-20010904/DTD/svg10.dtd">
<svg version="1.0" xmlns="http://www.w3.org/2000/svg"
 width="700.000000pt" height="700.000000pt" viewBox="0 0 700.000000 700.000000"
 preserveAspectRatio="xMidYMid meet">
<metadata>
Created by potrace 1.11, written by Peter Selinger 2001-2013
</metadata>
<g transform="translate(0.000000,700.000000) scale(0.100000,-0.100000)"
fill="#000000" stroke="none">
<path d="M3250 6989 c-36 -4 -92 -10 -125 -13 -33 -4 -67 -8 -75 -11 -8 -2
-33 -6 -55 -10 -137 -20 -358 -81 -500 -139 -111 -46 -268 -121 -315 -150
-357 -228 -528 -397 -738 -731 -6 -11 -41 -78 -76 -150 -83 -169 -135 -327
-172 -525 -3 -14 -9 -41 -14 -60 -5 -19 -11 -69 -15 -110 -3 -41 -8 -94 -11
-117 -9 -71 -11 -246 -3 -319 18 -159 18 -163 47 -285 24 -97 123 -383 155
-444 12 -22 21 -42 22 -45 4 -23 131 -265 204 -389 50 -85 91 -156 91 -158 0
-2 5 -9 10 -16 6 -7 26 -34 44 -62 160 -247 437 -616 624 -833 37 -43 87 -103
112 -132 70 -84 137 -160 215 -245 154 -166 288 -307 378 -397 59 -59 107
-109 107 -111 0 -1 -49 -51 -108 -112 -300 -305 -394 -586 -301 -892 18 -59
73 -178 89 -193 3 -3 19 -23 35 -45 106 -142 307 -260 485 -283 68 -9 220 -9
280 0 109 16 233 67 334 137 162 113 281 313 302 508 18 158 -4 279 -76 428
-58 122 -123 208 -252 340 -54 55 -100 103 -101 107 -2 6 80 94 346 371 240
250 548 614 786 930 134 178 336 472 389 567 14 25 33 59 43 75 220 371 370
734 413 1005 3 19 8 46 11 60 18 88 24 270 12 426 -7 108 -50 367 -73 443 -9
30 -17 62 -19 70 -19 91 -111 302 -192 444 -163 286 -421 548 -716 726 -103
62 -287 150 -377 181 -36 12 -72 25 -81 30 -8 4 -87 26 -175 48 -152 39 -231
54 -354 67 -30 4 -66 9 -80 11 -43 9 -462 11 -530 3z m180 -2711 c0 -1244 -2
-2259 -4 -2257 -22 25 -292 567 -386 774 -109 241 -108 239 -175 406 -125 309
-256 699 -300 897 -74 327 -90 457 -89 722 0 178 6 296 19 390 3 19 7 55 10
80 3 25 7 52 10 60 2 8 6 33 10 55 23 160 107 420 184 573 144 284 361 479
605 542 39 10 81 19 94 19 l22 1 0 -2262z m865 2170 c171 -58 425 -199 542
-299 70 -60 234 -232 266 -278 17 -25 33 -48 37 -51 14 -12 93 -154 133 -240
47 -100 97 -248 116 -340 6 -30 14 -66 16 -80 37 -184 42 -477 10 -624 -70
-326 -248 -700 -539 -1130 -127 -187 -114 -169 -220 -311 -78 -104 -329 -421
-345 -435 -3 -3 -45 -50 -92 -105 -116 -134 -240 -272 -314 -351 -16 -17 -54
-57 -84 -88 -29 -31 -55 -56 -56 -54 -2 2 5 19 14 38 10 19 63 125 118 235
101 200 118 234 220 460 150 330 345 846 398 1055 3 8 18 67 35 130 17 63 33
127 35 142 3 15 9 38 15 52 5 15 8 26 5 26 -2 0 0 14 5 32 5 17 12 50 15 72 3
23 8 55 12 71 24 122 31 240 28 480 -2 143 -5 271 -8 285 -3 14 -8 52 -11 85
-4 33 -8 71 -10 85 -3 14 -7 39 -10 55 -14 93 -20 119 -43 215 -94 396 -278
716 -523 913 l-44 35 94 -24 c52 -14 136 -38 185 -56z m-728 -5350 c68 -63
163 -185 190 -246 65 -147 -19 -304 -181 -338 -48 -10 -140 -4 -188 12 -65 21
-142 95 -157 150 -17 62 -13 124 13 179 46 99 213 285 256 285 11 0 41 -19 67
-42z"/>
</g>
</svg>
