<!-- Brazil -->
<svg xmlns="http://www.w3.org/2000/svg" viewBox="0 0 300 300">
  <g buffered-rendering="static">
    <clipPath id="brazil-a">
      <path d="M150 0C67.157 0 0 67.157 0 150s67.157 150 150 150 150-67.157 150-150S232.843 0 150 0z" clip-rule="nonzero"/>
    </clipPath>
    <g clip-path="url(#brazil-a)">
      <path fill="#009b3a" d="M-64.286 0h428.571v300H-64.286z"/>
      <path d="M-27.857 150L150 263.572 327.858 150 150 36.43-27.857 150z" fill="#fedf00" fill-rule="nonzero"/>
      <path d="M150 75c41.421 0 75 33.579 75 75s-33.579 75-75 75-75-33.579-75-75 33.579-75 75-75" fill="#002776" fill-rule="nonzero"/>
    </g>
    <g transform="translate(-75 117.857)">
      <clipPath id="brazil-b">
        <path d="M150 32.143c0 41.421 33.579 75 75 75s75-33.579 75-75-33.579-75-75-75-75 33.579-75 75z" clip-rule="nonzero"/>
      </clipPath>
      <g clip-path="url(#brazil-b)">
        <path d="M0 182.143C0 81.548 81.548 0 182.143 0c100.594 0 182.143 81.548 182.143 182.143h-10.715c0-94.678-76.75-171.429-171.428-171.429-94.677 0-171.429 76.751-171.429 171.429H0z" fill="#fff" fill-rule="nonzero"/>
      </g>
    </g>
    <g>
      <clipPath id="brazil-c">
        <path d="M150 0C67.157 0 0 67.157 0 150s67.157 150 150 150 150-67.157 150-150S232.843 0 150 0z" clip-rule="nonzero"/>
      </clipPath>
      <g clip-path="url(#brazil-c)">
        <path d="M109.976 126.779l6.424.224.047-1.325-5.201-.182.064-1.836 4.079.143.043-1.224-4.08-.142.05-1.428 4.895.171.047-1.326-6.119-.214-.249 7.139zM119.038 127.165l1.22.107.427-4.88.996 5.004 1.118.098 1.85-4.755-.427 4.879 1.22.107.623-7.115-1.779-.156-1.85 4.755-.997-5.004-1.778-.156-.623 7.116zM133.837 128.834l5.28.907.207-1.207-4.073-.7.277-1.609 3.319.571.207-1.207-3.318-.57.19-1.106 3.947.678.207-1.207-5.154-.886-1.089 6.336z" fill="#009b3a" fill-rule="nonzero"/>
        <path fill="#009b3a" d="M177.696 139.016l2.48 1.078.407-.936-2.48-1.078z"/>
        <path fill="#009b3a" d="M178.224 142.027l.937.408 1.424-3.275-.937-.407z"/>
        <path d="M200.062 151.156c-.384.602.005 1.274.866 1.822.86.548 1.447.529 1.695.142.781-1.227-3.736-3.015-2.344-5.153 1.2-1.837 3.254-.407 4.029.086.774.494 2.018 1.77 1.051 3.241l-1.313-.837c.411-.645-.041-1.265-.729-1.704-.667-.425-1.209-.619-1.606.005-.666.998 3.761 2.88 2.404 5.01-1.001 1.571-2.742.885-3.904.145-.99-.631-2.468-2.117-1.505-3.62l1.356.863zM189.64 147.659l5.595 3.166.653-1.155-4.529-2.563.904-1.598 3.553 2.01.603-1.066-3.553-2.01.704-1.243 4.263 2.412.653-1.155-5.329-3.015-3.517 6.217zM207.724 156.223c-.414.582-.061 1.272.77 1.865.83.592 1.417.603 1.684.23.844-1.184-3.572-3.206-2.07-5.268 1.294-1.771 3.271-.237 4.018.296.748.534 1.923 1.873.88 3.291l-1.267-.903c.445-.623.026-1.266-.638-1.74-.644-.459-1.175-.681-1.605-.079-.717.961 3.605 3.072 2.138 5.129-1.081 1.516-2.784.74-3.905-.06-.955-.682-2.355-2.243-1.314-3.694l1.309.933zM85.598 122.359c2.428 0 2.428 4.353 0 4.353s-2.428-4.353 0-4.353m3.19 1.782c-.24-1.958-1.863-3.37-3.625-3.153-1.762.216-2.995 1.978-2.755 3.936.24 1.958 1.863 3.369 3.625 3.153 1.762-.216 2.995-1.979 2.755-3.936M218.77 160.027c2.004 1.372-.455 4.964-2.458 3.592-2.004-1.371.455-4.963 2.458-3.592m1.626 3.273c.908-1.752.366-3.834-1.21-4.65-1.576-.817-3.59-.059-4.497 1.692-.908 1.751-.365 3.833 1.211 4.65 1.575.816 3.589.059 4.496-1.692M103.813 125.512c-.548 0-1.604.007-1.604.007l-.078-4.489c1.477-.019 1.528-.019 2.101-.019 1.06.018 1.506.809 1.729 1.32.081.57.085.8.103 1.293-.065.53-.224.967-.67 1.386-.735.493-1.106.502-1.581.502m2.914-4.513c-.787-1.267-2.374-1.327-2.374-1.327l-3.571.055.124 7.142s2.833.001 3.585-.071c.753-.071 1.638-.505 2.215-1.264.578-.76.572-1.659.568-2.212-.005-.552.083-1.307-.547-2.323M96.168 122.982c-.279.232-1.06.242-1.06.242l-2.209.146-.128-1.833c.335.003 2.091-.145 2.123-.145a16.5 16.5 0 00.753-.047s.29.009.577.261a.753.753 0 01.288.613c-.009.363-.217.692-.344.763m.803 1.11s.747-.632.94-1.536c.192-.904-.368-1.643-.605-1.855-.238-.212-.736-.713-1.473-.684-.737.028-4.376.282-4.376.282l.397 7.133 1.323-.092-.185-2.647 2.297-.161.553-.038s.711 1.164.78 1.882c.044.423.038.782.038.782h1.29s.032-1.27-.335-2.031c-.367-.761-.644-1.035-.644-1.035M169.788 132.413c2.347.623 1.23 4.83-1.117 4.207-2.346-.623-1.229-4.83 1.117-4.207m2.627 2.541c.27-1.954-.937-3.735-2.695-3.978-1.758-.243-3.403 1.144-3.673 3.098s.936 3.735 2.695 3.978c1.758.242 3.402-1.144 3.673-3.098M161.755 130.871c-.339.129-1.081-.118-1.081-.118l-2.135-.584.478-1.774c.315.112 2.024.547 2.054.556.338.106.726.203.726.203s.27.103.461.435c.04.052.199.334.071.674-.126.339-.431.583-.574.608m.396 1.312s.912-.354 1.39-1.145c.477-.791.19-1.673.035-1.95-.155-.279-.462-.915-1.168-1.129-.705-.214-4.227-1.163-4.227-1.163l-1.959 6.87 1.282.345.689-2.561 2.225.599.534.144s.292 1.333.121 2.033c-.095.415-.218.753-.218.753l1.218.421s.446-1.19.349-2.029c-.1-.839-.271-1.188-.271-1.188M187.81 141.355c-.349.099-1.067-.209-1.067-.209l-2.077-.764.626-1.726c.304.138 1.97.716 1.999.728.328.134.708.263.708.263s.259.126.421.472c.035.057.17.351.014.679-.155.327-.479.544-.624.557m.284 1.34s.938-.274 1.481-1.022c.543-.748.331-1.651.201-1.941-.131-.289-.383-.95-1.068-1.223-.685-.273-4.114-1.518-4.114-1.518l-2.533 6.679 1.246.453.906-2.494 2.164.786.521.189s.177 1.352-.052 2.036c-.129.406-.281.731-.281.731l1.178.524s.545-1.148.519-1.992c-.027-.845-.168-1.208-.168-1.208M152.935 128.497c-.336.137-1.084-.092-1.084-.092l-2.148-.533.435-1.785c.318.105 2.037.498 2.067.507.341.097.732.185.732.185s.272.097.469.424a.75.75 0 01.089.672c-.12.343-.418.593-.56.622m.428 1.302s.903-.376 1.361-1.178c.458-.802.15-1.677-.011-1.951-.163-.274-.484-.903-1.195-1.1-.711-.197-4.255-1.062-4.255-1.062l-1.792 6.915 1.289.315.628-2.577 2.238.546.539.131M179.931 138.825c-.184-.081-.376-.139-.568-.199-.559 1.054-1.795 1.804-2.897 1.049-2.004-1.371.455-4.962 2.458-3.592.484.331.702.792.736 1.281.302.129.63.188.934.328.128.058.254.119.382.178.102-1.314-.493-2.572-1.636-3.164-1.576-.816-3.59-.058-4.497 1.692-.907 1.752-.365 3.833 1.211 4.65 1.576.817 3.589.059 4.497-1.692.036-.069.065-.14.097-.211-.24-.104-.477-.214-.717-.32" fill="#009b3a" fill-rule="nonzero"/>
        <path d="M176.078 125.76l-1.587 1.152.606 1.867-1.587-1.154-1.587 1.154.606-1.867-1.587-1.152h1.962l.606-1.865.606 1.865h1.962zM85.719 135.537l1.889 1.373-.722 2.221 1.89-1.372 1.889 1.372-.722-2.221 1.89-1.373h-2.336l-.721-2.221-.722 2.221h-2.335zM168.422 145.561l1.307.95-.498 1.537 1.307-.95 1.307.95-.499-1.537 1.307-.95h-1.616l-.499-1.537-.492 1.537h-1.624zM101.407 163.157l.801.561-.309.951.795-.577.795.577-.304-.934.796-.578h-.984l-.303-.935-.304.935h-.983zM95.396 164.847l-.71 2.22H92.35l1.89 1.373-.722 2.222 1.89-1.373 1.888 1.373-.72-2.222 1.888-1.373H96.13l-.722-2.22M83.677 173.968l1.574 1.144-.6 1.851 1.573-1.145 1.575 1.145-.6-1.851 1.573-1.144h-1.946l-.602-1.851-.6 1.851h-1.947zM118.978 152.184l1.543 1.121-.589 1.813 1.542-1.121 1.543 1.121-.589-1.813 1.543-1.121h-1.907l-.59-1.814-.589 1.814h-1.907zM108.892 174.583l1.423 1.034-.543 1.672 1.423-1.033 1.423 1.033-.544-1.672 1.423-1.034h-1.759l-.543-1.672-.544 1.672h-1.759zM106.777 182.431l1.307.95-.498 1.537 1.307-.95 1.307.95-.5-1.537 1.308-.95h-1.616l-.499-1.537-.492 1.537h-1.624zM116.905 188.404l1.89 1.373-.722 2.221 1.889-1.373 1.889 1.373-.722-2.221 1.89-1.373h-2.335l-.722-2.22-.722 2.22h-2.335zM147.432 161.481l1.587 1.152-.606 1.867 1.587-1.154 1.588 1.154-.607-1.867 1.587-1.152h-1.971l-.597-1.865-.606 1.865h-1.962zM140.304 168.236l1.307.95-.498 1.537 1.303-.952 1.311.952-.5-1.537 1.308-.95h-1.616l-.499-1.537-.5 1.537h-1.616zM144.887 173.407l.795.578-.303.934.795-.577.795.577-.304-.934.796-.578h-.984l-.303-.935-.304.935h-.983zM156.101 168.036l1.587 1.153-.606 1.866 1.587-1.154 1.587 1.154-.607-1.866 1.588-1.153h-1.962l-.606-1.865-.597 1.865h-1.971zM146.943 183.016l1.89 1.373-.722 2.221 1.889-1.373 1.889 1.373-.722-2.221 1.89-1.373h-2.335l-.722-2.221-.711 2.221h-2.346zM148.972 208.352l.606.44-.231.713.606-.441.606.441-.232-.713.606-.44h-.749l-.231-.712-.228.712h-.753zM164.397 191.411l1.307.95-.498 1.537 1.307-.95 1.307.95-.499-1.537 1.307-.95h-1.616l-.499-1.537-.492 1.537h-1.624zM169.85 199.644l1.587 1.153-.606 1.866 1.587-1.154 1.587 1.154-.606-1.866 1.587-1.153h-1.962l-.606-1.865-.606 1.865h-1.962zM179.717 194.065l1.308-.95h-1.616l-.5-1.537-.492 1.537h-1.623l1.307.95-.499 1.537 1.307-.95 1.308.95-.5-1.537zM185.134 190.626l1.307.95-.498 1.537 1.307-.95 1.307.95-.499-1.537 1.307-.95h-1.616l-.499-1.537-.5 1.537h-1.616zM184.874 197.718l1.587 1.153-.606 1.866 1.587-1.154 1.587 1.154-.607-1.866 1.588-1.153h-1.962l-.607-1.865-.605 1.865h-1.962zM185.505 205.551l1.307.95-.498 1.537 1.307-.95 1.307.95-.499-1.537 1.307-.95h-1.623l-.492-1.537-.492 1.537h-1.624zM192.97 191.968l1.307.95-.498 1.537 1.307-.95 1.307.95-.5-1.537 1.308-.95h-1.616l-.499-1.537-.5 1.537h-1.616zM198.521 188.082l1.587 1.153-.606 1.866 1.587-1.154 1.587 1.154-.606-1.866 1.587-1.153h-1.962l-.606-1.865-.597 1.865-1.926-.01M203.028 182.231l1.587 1.152-.606 1.867 1.587-1.154 1.587 1.154-.606-1.866 1.587-1.153h-1.962l-.606-1.865-.606 1.865h-1.962zM199.482 175.278l1.889 1.373-.721 2.221 1.889-1.373 1.889 1.373-.722-2.221 1.89-1.373h-2.335l-.722-2.221-.722 2.221h-2.335zM210.925 176.41l1.307.95-.498 1.537 1.307-.95 1.307.95-.5-1.537 1.308-.95h-1.616l-.499-1.537-.492 1.537h-1.624z" fill="#fff" fill-rule="nonzero"/>
      </g>
    </g>
  </g>
</svg>
