<svg viewBox="0 0 300 300" xmlns="http://www.w3.org/2000/svg" fill-rule="evenodd" clip-rule="evenodd" stroke-linejoin="round" stroke-miterlimit="2">
  <circle cx="150" cy="150" r="150" fill="#e73226" />
  <path d="M184.693 217.805c4.272 6.182-.244 15.268-.244 15.268s31.334-16.447 20.185-55.141c-13.237-37.119-49.862-28.791-49.862-28.791.582-.04 12.182-.148 23.242 12.255 7.513 8.199 8.237 20.509 8.237 20.509l-1.303.085s.173-9.741-7.99-19.827c-9.937-12.085-23.53-11.729-23.53-11.729s11.447 2.645 14.163 14.778c.722 3.231.203 6.526-.893 10.67-3.344 7.144-5.95 11.922-2.394 21.969 4.525 15.395 15.237 10.291 20.389 19.954zm-88.407-13.878c-4.561 5.972-14.597 4.486-14.597 4.486s25.325 24.718 58.68 2.157c31.211-24.058 11.974-56.317 11.974-56.317.218.539 3.904 11.539-4.474 25.89-5.475 9.679-16.959 14.172-16.959 14.172l-.485-1.212s9.319-2.847 16.388-13.727c8.423-13.185 3.884-26.004 3.884-26.004s1.023 11.705-9.677 18.037c-2.851 1.686-6.144 2.211-10.425 2.449-7.827-.973-13.176-1.975-21.633 4.511-13.244 9.062-5.078 17.672-12.676 25.558zm26.97-12.097l5.126-2.019-2.311 5.004 3.509 4.254-5.477-.648-2.961 4.646-1.07-5.405-5.337-1.379 4.807-2.694-.333-5.498 4.047 3.739zm58.266-3.414l-.336-5.499 4.045 3.744 5.131-2.022-2.309 5.008 3.504 4.252-5.472-.652-2.96 4.649-1.077-5.404-5.332-1.383 4.806-2.693zm-99.357-72.858c-7.09-2.492-8.778-12.495-8.778-12.495s-15.682 31.723 16.082 56.474c32.526 22.249 57.261-6.016 57.261-6.016-.445.375-9.768 7.28-26.005 3.747-10.898-2.217-18.719-11.751-18.719-11.751l1.004-.834s5.586 7.982 18.118 11.343c15.143 3.937 25.931-4.341 25.931-4.341s-10.817 4.588-20.145-3.631c-2.484-2.191-4.001-5.16-5.55-9.158-1.493-7.745-2.193-13.142-10.975-19.18-12.711-9.795-18.377.632-28.224-4.158zm143.046 22.455c7.2-2.153 14.446 4.95 14.446 4.95s-5.96-34.883-46.206-36.236c-39.39 1.118-42.789 38.523-42.789 38.523.141-.564 3.624-11.631 18.837-18.316 10.119-4.613 22.051-1.496 22.051-1.496l-.321 1.264s-9.211-3.174-21.327 1.473c-14.564 5.716-18.426 18.755-18.426 18.755s6.053-10.071 18.431-8.904c3.297.312 6.271 1.823 9.873 4.146 5.76 5.389 9.499 9.344 20.154 9.066 16.04.453 14.495-11.311 25.277-13.225zm-63.366-63.192c.178-7.513 9.172-12.209 9.172-12.209S136 57.5 122.276 95.358c-11.109 37.809 23.415 52.599 23.415 52.599-.493-.308-9.941-7.04-11.598-23.575-1.26-11.049 5.39-21.434 5.39-21.434l1.104.697s-5.865 7.78-5.19 20.737c.936 15.618 12.143 23.32 12.143 23.32s-7.707-8.869-2.771-20.28c1.314-3.04 3.67-5.4 6.993-8.109 6.905-3.813 11.821-6.146 14.85-16.365 5.388-15.115-6.279-17.281-4.767-28.127zm-59.841 62.649l3.505 4.251-5.474-.651-2.962 4.652-1.076-5.41-5.334-1.38 4.81-2.688-.338-5.502 4.048 3.739 5.127-2.015-2.306 5.004zm94.277-5.524l-5.334-1.379 4.812-2.69-.338-5.505 4.05 3.744 5.127-2.018-2.313 5.002 3.507 4.253-5.472-.647-2.963 4.644-1.076-5.404zm-49.145-31.486l-2.96 4.646-1.072-5.406-5.339-1.379 4.812-2.696-.336-5.499 4.043 3.745 5.128-2.022-2.306 5.005 3.501 4.252-5.471-.646z" fill="#fff" fill-rule="nonzero" />
</svg>