<svg clip-rule="evenodd" fill-rule="evenodd" stroke-linejoin="round" stroke-miterlimit="2" viewBox="0 0 464 468" xmlns="http://www.w3.org/2000/svg">
    <path d="M444 24H19v425h425zm-24 351.702l-72.804-109.705-32.081 50.459-90.344-165.337-67.97 115.95-34.29-59.175L43 331.135V425h377zM43 48v238.865l80.884-125.371L157 219.271l68.199-116.34 92.465 169.725 29.434-51.112L420 332.131V135.664C408.278 145.249 393.305 151 377 151c-37.53 0-68-30.47-68-68 0-12.796 3.542-24.77 9.7-35zm360.655 0h-53.31C339.805 56.043 333 68.733 333 83c0 24.284 19.716 44 44 44 21.071 0 38.703-14.844 43-34.638V73.638c-2.254-10.384-8.178-19.406-16.345-25.638z" fill="#FFF"/>
</svg>
