<svg viewBox="0 0 301 301" xmlns="http://www.w3.org/2000/svg" fill-rule="evenodd" clip-rule="evenodd" stroke-linejoin="round" stroke-miterlimit="2"><path d="M300 150c0 82.843-67.157 150-150 150S0 232.843 0 150C0 67.158 67.157 0 150 0s150 67.158 150 150z" fill="#fff"/><path d="M8.536 100C29.123 41.744 84.687 0 150 0s120.877 41.744 141.464 100H8.536z" fill="#f89938" fill-rule="nonzero"/><path d="M291.464 200C270.877 258.257 215.313 300 150 300S29.123 258.257 8.536 200h282.928z" fill="#158942" fill-rule="nonzero"/><path d="M150 110c22.091 0 40 17.909 40 40s-17.909 40-40 40-40-17.909-40-40 17.909-40 40-40zm24.749 64.749a35.625 35.625 0 01-2.081 1.919 1.75 1.75 0 00-2.774 2.132 34.93 34.93 0 01-4.898 2.834 1.75 1.75 0 00-3.232 1.34 34.76 34.76 0 01-5.466 1.461 1.75 1.75 0 00-3.47.452 35.23 35.23 0 01-5.657 0 1.749 1.749 0 00-3.47-.452 34.857 34.857 0 01-5.465-1.461 1.751 1.751 0 00-3.233-1.341 34.872 34.872 0 01-4.897-2.833 1.75 1.75 0 00-2.774-2.132 34.993 34.993 0 01-2.081-1.919l15.698-14.001 4.362-5.551c.275.249.57.476.882.678l-4.232 5.649-9.461 18.787 11.539-17.586 2.776-6.49a7.04 7.04 0 001.028.427l-2.626 6.551-4.276 20.595 6.594-19.974 1.002-6.987c.359.076.728.125 1.104.144L148.8 164l1.2 21 1.2-21-.841-7.009a7.047 7.047 0 001.104-.144l1.001 6.987 6.595 19.974-4.276-20.595-2.626-6.551a7.086 7.086 0 001.028-.427l2.776 6.49 11.539 17.586-9.461-18.787-4.232-5.649c.312-.202.607-.429.882-.678l4.362 5.551 15.698 14.001zm0-49.498a35.625 35.625 0 011.919 2.081 1.75 1.75 0 002.132 2.774 34.872 34.872 0 012.833 4.897 1.751 1.751 0 001.341 3.233 34.76 34.76 0 011.461 5.466 1.751 1.751 0 00.452 3.47 35.23 35.23 0 010 5.657 1.75 1.75 0 00-.452 3.47 34.857 34.857 0 01-1.461 5.465 1.75 1.75 0 00-1.341 3.233 34.872 34.872 0 01-2.833 4.897 1.75 1.75 0 00-2.132 2.774 34.993 34.993 0 01-1.919 2.081l-14.001-15.698-5.551-4.362c.249-.275.476-.57.678-.882l5.649 4.232 18.787 9.461-17.587-11.539-6.489-2.776c.168-.328.311-.672.426-1.028l6.551 2.626 20.595 4.276-19.974-6.594-6.986-1.002c.076-.359.125-.728.144-1.104l7.009.841 21-1.2-21-1.2-7.009.841a7.047 7.047 0 00-.144-1.104l6.986-1.001 19.974-6.595-20.595 4.276-6.551 2.626a6.927 6.927 0 00-.426-1.028l6.489-2.776 17.587-11.539-18.787 9.461-5.649 4.232a6.908 6.908 0 00-.678-.882l5.551-4.362 14.001-15.698zm-49.498 0l14.001 15.698 5.551 4.362c-.249.275-.476.57-.678.882l-5.649-4.232-18.787-9.461 17.586 11.539 6.49 2.776a6.927 6.927 0 00-.426 1.028l-6.552-2.626-20.595-4.276 19.974 6.595 6.987 1.001a7.047 7.047 0 00-.144 1.104L136 148.8l-21 1.2 21 1.2 7.009-.841c.019.377.068.745.144 1.104l-6.987 1.002-19.974 6.594 20.595-4.276 6.552-2.626c.115.356.258.699.426 1.028l-6.49 2.776-17.586 11.539 18.787-9.461 5.649-4.232c.202.312.429.607.678.882l-5.551 4.362-14.001 15.698a35.625 35.625 0 01-1.919-2.081 1.75 1.75 0 00-2.132-2.774 34.872 34.872 0 01-2.833-4.897 1.751 1.751 0 00-1.341-3.233 34.828 34.828 0 01-1.461-5.465 1.751 1.751 0 00-.452-3.47 35.274 35.274 0 010-5.657 1.75 1.75 0 00.452-3.47 34.84 34.84 0 011.461-5.466 1.75 1.75 0 001.341-3.233 34.872 34.872 0 012.833-4.897 1.75 1.75 0 002.132-2.774 34.993 34.993 0 011.919-2.081zM150 115l-1.2 21 .841 7.009a7.032 7.032 0 00-1.104.144l-1.002-6.986-6.594-19.974 4.276 20.595 2.626 6.551c-.356.115-.7.258-1.028.426l-2.776-6.489-11.539-17.587 9.461 18.787 4.232 5.649a6.908 6.908 0 00-.882.678l-4.362-5.551-15.698-14.001a35.625 35.625 0 012.081-1.919 1.75 1.75 0 002.774-2.132 34.872 34.872 0 014.897-2.833 1.751 1.751 0 003.233-1.341 34.828 34.828 0 015.465-1.461 1.75 1.75 0 003.47-.452l.136-.011A39.038 39.038 0 01150 115zm0 0l.226.001c.876.005 1.745.043 2.602.112a1.751 1.751 0 003.47.452 34.84 34.84 0 015.466 1.461 1.75 1.75 0 003.232 1.34 34.93 34.93 0 014.898 2.834 1.75 1.75 0 002.774 2.132c.72.612 1.414 1.252 2.081 1.919l-15.698 14.001-4.362 5.551a6.908 6.908 0 00-.882-.678l4.232-5.649 9.461-18.787-11.539 17.587-2.776 6.489a6.927 6.927 0 00-1.028-.426l2.626-6.551 4.276-20.595-6.595 19.974-1.001 6.986a7.047 7.047 0 00-1.104-.144L151.2 136l-1.2-21z" fill="#292b79"/></svg>