<svg viewBox="0 0 48 48" xmlns="http://www.w3.org/2000/svg" fill-rule="evenodd" clip-rule="evenodd" stroke-linejoin="round" stroke-miterlimit="2">
  <path d="M42 35H6L24 4l18 31z" fill="#e53935" fill-rule="nonzero" />
  <path d="M21.514 4.237a2.501 2.501 0 014.972 0l14.21 7.895A2.5 2.5 0 0143 16.5v16a2.5 2.5 0 01-2.304 4.368l-14.21 7.895a2.501 2.501 0 01-4.972 0l-14.21-7.895A2.5 2.5 0 015 32.5v-16a2.5 2.5 0 012.304-4.368l14.21-7.895zM23 42.208V36H9.858l12.287 6.825c.236-.262.527-.473.855-.617zm2.855.617L38.142 36H25v6.208c.328.144.619.355.855.617zm-4.344-19.064l-5.919-3.288-7.198 12.396c.274.317.469.705.556 1.131H23v-7.708a2.502 2.502 0 01-1.489-2.531zm18.095 9.108l-7.198-12.396-5.919 3.288A2.502 2.502 0 0125 26.292V34h14.05c.087-.426.282-.813.556-1.131zM8.177 16.353c-.326.295-.73.506-1.177.597v14.336l6.843-11.785-5.666-3.148zm31.646 0l-5.666 3.148L41 31.286V16.95a2.497 2.497 0 01-1.177-.597zM23.45 6.939l-6.854 11.804 5.887 3.27A2.489 2.489 0 0124 21.5c.57 0 1.096.191 1.517.513l5.887-3.27L24.55 6.939a2.492 2.492 0 01-1.1 0zM9 14.523l5.847 3.248 6.465-11.134-12.489 6.938c.114.286.177.598.177.925v.023zm30.177-.948L26.688 6.637l6.465 11.134L39 14.523V14.5c0-.327.063-.639.177-.925z" fill="#212121" fill-rule="nonzero" />
</svg>