<!-- UK -->
<svg xmlns="http://www.w3.org/2000/svg" viewBox="0 0 300 300">
  <g buffered-rendering="static">
    <path d="M150 0C67.157 0 0 67.157 0 150s67.157 150 150 150 150-67.157 150-150S232.843 0 150 0z" fill="#fff" fill-rule="nonzero"/>
    <path d="M150.19 0a150.787 150.787 0 0129.641 2.967V119.92h117.152A150.618 150.618 0 01300 150c0 10.231-1.024 20.223-2.979 29.889h-117.19v117.144a150.36 150.36 0 01-26.628 2.933h-6.406a150.296 150.296 0 01-26.941-2.996V179.889H2.979A150.629 150.629 0 010 150c0-10.306 1.039-20.369 3.017-30.08h116.839V3.03A150.72 150.72 0 01149.81 0h.38zM23.111 230.031a149.347 149.347 0 01-7.385-13.097l33.852-16.959H83.2l-60.089 30.056zm267.065-26.528a148.616 148.616 0 01-6.02 13.667l-34.419-17.234h33.308l7.131 3.567zM15.76 82.998l34.083 17.066H16.535l-6.779-3.391a149.006 149.006 0 016.004-13.675zm261.087-13.095a149.344 149.344 0 017.359 13.027l-34.098 17.056H216.8l60.047-30.083z" fill="#cf142b" fill-rule="nonzero"/>
    <path d="M271.112 238.515c-17.705 24.185-42.48 42.869-71.282 53.01v-88.658l71.282 35.648zM99.856 291.413C71.141 281.23 46.448 262.55 28.804 238.4l71.052-35.533v88.546zM199.83 8.475c28.791 10.139 53.557 28.812 71.264 52.985L199.83 97.099V8.475zM99.856 97.099L28.822 61.575C46.465 37.436 71.148 18.767 99.856 8.587v88.512z" fill="#00247d" fill-rule="nonzero"/>
  </g>
</svg>
