<!-- Singapore -->
<svg xmlns="http://www.w3.org/2000/svg" viewBox="0 0 300 300">
  <g buffered-rendering="static">
    <path d="M300 150H0C0 67.157 67.157 0 150 0s150 67.157 150 150z" fill="#ed2939" />
    <path d="M300 150c0 82.843-67.157 150-150 150S0 232.843 0 150h300zm-173.447-21.739a56.31 56.31 0 01-18.618 3.145c-31.153 0-56.407-25.254-56.407-56.406 0-31.152 25.254-56.406 56.407-56.406a56.31 56.31 0 0118.618 3.145C98.137 22.896 75.455 46.299 75.455 75c0 28.701 22.682 52.104 51.098 53.261zm-.387-16.197l-7.663-5.878-7.66 5.881 2.949-9.479-7.687-5.843 9.486.02 2.909-9.492 2.913 9.491 9.486-.023-7.685 5.846 2.952 9.477zm37.624 0l-7.663-5.878-7.66 5.881 2.949-9.479-7.687-5.843 9.486.02 2.909-9.492 2.913 9.491 9.486-.023-7.685 5.846 2.952 9.477zm-48.874-35.703l-7.663-5.878-7.66 5.881 2.949-9.479-7.687-5.843 9.486.02 2.909-9.492 2.913 9.491 9.486-.023-7.685 5.846 2.952 9.477zm60.124 0l-7.663-5.878-7.66 5.881 2.949-9.479-7.687-5.843 9.486.02 2.909-9.492 2.913 9.491 9.486-.023-7.685 5.846 2.952 9.477zm-30.031-22.314l-7.663-5.878-7.66 5.881 2.949-9.479-7.687-5.843 9.486.02 2.909-9.492 2.913 9.491 9.486-.023-7.685 5.846 2.952 9.477z" fill="#fff" />
  </g>
</svg>
