<!-- USA -->
<svg xmlns="http://www.w3.org/2000/svg" viewBox="0 0 300 300">
  <g buffered-rendering="static">
    <clipPath id="usa-a">
      <path d="M150 0C67.157 0 0 67.157 0 150s67.157 150 150 150 150-67.157 150-150S232.843 0 150 0z" clip-rule="nonzero"/>
    </clipPath>
    <g clip-path="url(#usa-a)">
      <path fill="#fff" d="M0 0h570v300H0z"/>
      <path fill="#b22234" d="M0 0h570v23.077H0zM0 46.154h570v23.077H0zM0 92.308h570v23.077H0zM0 138.462h570v23.077H0zM0 184.615h570v23.076H0zM0 230.769h570v23.077H0zM0 276.923h570V300H0z"/>
      <path fill="#3c3b6e" d="M0 0h228v161.538H0z"/>
      <path d="M10.712 13.114l5.43 3.946-2.073 6.385 5.43-3.946 5.432 3.946-2.075-6.385 5.43-3.946h-6.712L19.5 6.73l-2.075 6.385h-6.713zM48.512 13.114l5.43 3.946-2.073 6.385 5.43-3.946 5.432 3.946-2.075-6.385 5.43-3.946h-6.712L57.3 6.73l-2.075 6.385h-6.713zM86.312 13.114l5.431 3.946-2.074 6.385L95.1 19.5l5.431 3.946-2.075-6.385 5.431-3.946h-6.713L95.1 6.73l-2.075 6.385h-6.713zM124.112 13.114l5.431 3.946-2.074 6.385L132.9 19.5l5.431 3.946-2.075-6.385 5.431-3.946h-6.713L132.9 6.73l-2.075 6.385h-6.713zM161.912 13.114l5.431 3.946-2.074 6.385L170.7 19.5l5.431 3.946-2.075-6.385 5.431-3.946h-6.713L170.7 6.73l-2.075 6.385h-6.713zM199.712 13.114l5.431 3.946-2.074 6.385L208.5 19.5l5.431 3.946-2.075-6.385 5.431-3.946h-6.713L208.5 6.73l-2.075 6.385h-6.713zM29.612 29.314l5.43 3.946-2.073 6.385 5.43-3.946 5.432 3.946-2.075-6.385 5.43-3.946h-6.712L38.4 22.93l-2.075 6.385h-6.713zM67.412 29.314l5.43 3.946-2.073 6.385 5.43-3.946 5.432 3.946-2.075-6.385 5.43-3.946h-6.712L76.2 22.93l-2.075 6.385h-6.713zM105.212 29.314l5.431 3.946-2.074 6.385L114 35.7l5.431 3.946-2.075-6.385 5.431-3.946h-6.713L114 22.93l-2.075 6.385h-6.713zM143.012 29.314l5.431 3.946-2.074 6.385L151.8 35.7l5.431 3.946-2.075-6.385 5.431-3.946h-6.713L151.8 22.93l-2.075 6.385h-6.713zM180.811 29.314l5.431 3.946-2.074 6.385 5.431-3.946 5.431 3.946-2.075-6.385 5.431-3.946h-6.713l-2.074-6.385-2.075 6.385h-6.713zM10.712 45.515l5.43 3.946-2.073 6.385 5.43-3.946 5.432 3.946-2.075-6.385 5.43-3.946h-6.712L19.5 39.13l-2.075 6.385h-6.713zM48.512 45.515l5.43 3.946-2.073 6.385 5.43-3.946 5.432 3.946-2.075-6.385 5.43-3.946h-6.712L57.3 39.13l-2.075 6.385h-6.713zM86.312 45.515l5.431 3.946-2.074 6.385L95.1 51.9l5.431 3.946-2.075-6.385 5.431-3.946h-6.713L95.1 39.13l-2.075 6.385h-6.713zM124.112 45.515l5.431 3.946-2.074 6.385L132.9 51.9l5.431 3.946-2.075-6.385 5.431-3.946h-6.713L132.9 39.13l-2.075 6.385h-6.713zM161.912 45.515l5.431 3.946-2.074 6.385L170.7 51.9l5.431 3.946-2.075-6.385 5.431-3.946h-6.713L170.7 39.13l-2.075 6.385h-6.713zM199.712 45.515l5.431 3.946-2.074 6.385L208.5 51.9l5.431 3.946-2.075-6.385 5.431-3.946h-6.713L208.5 39.13l-2.075 6.385h-6.713zM30.078 61.768l5.431 3.946-2.074 6.385 5.431-3.946 5.431 3.946-2.075-6.385 5.431-3.946H40.94l-2.074-6.385-2.075 6.385h-6.713zM67.878 61.768l5.431 3.946-2.074 6.385 5.431-3.946 5.431 3.946-2.075-6.385 5.431-3.946H78.74l-2.074-6.385-2.075 6.385h-6.713zM105.678 61.768l5.431 3.946-2.074 6.385 5.431-3.946 5.431 3.946-2.075-6.385 5.431-3.946h-6.713l-2.074-6.385-2.075 6.385h-6.713zM143.478 61.768l5.431 3.946-2.074 6.385 5.431-3.946 5.431 3.946-2.075-6.385 5.431-3.946h-6.713l-2.074-6.385-2.075 6.385h-6.713zM181.278 61.768l5.431 3.946-2.074 6.385 5.431-3.946 5.431 3.946-2.075-6.385 5.431-3.946h-6.713l-2.074-6.385-2.075 6.385h-6.713zM11.286 77.832l5.43 3.946-2.074 6.385 5.432-3.946 5.43 3.946-2.075-6.385 5.432-3.946h-6.713l-2.074-6.385-2.075 6.385h-6.713zM49.085 77.832l5.431 3.946-2.074 6.385 5.431-3.946 5.431 3.946-2.075-6.385 5.431-3.946h-6.713l-2.074-6.385-2.075 6.385h-6.713zM86.885 77.832l5.431 3.946-2.074 6.385 5.431-3.946 5.431 3.946-2.075-6.385 5.431-3.946h-6.713l-2.074-6.385-2.075 6.385h-6.713zM124.686 77.832l5.431 3.946-2.074 6.385 5.431-3.946 5.431 3.946-2.075-6.385 5.431-3.946h-6.713l-2.074-6.385-2.075 6.385h-6.713zM162.485 77.832l5.431 3.946-2.074 6.385 5.431-3.946 5.431 3.946-2.075-6.385 5.431-3.946h-6.713l-2.074-6.385-2.075 6.385h-6.713zM200.285 77.832l5.431 3.946-2.074 6.385 5.431-3.946 5.431 3.946-2.075-6.385 5.431-3.946h-6.713l-2.074-6.385-2.075 6.385h-6.713zM11.64 109.72l5.43 3.946-2.073 6.385 5.43-3.946 5.432 3.946-2.075-6.385 5.43-3.946h-6.712l-2.074-6.385-2.075 6.385H11.64zM49.44 109.72l5.43 3.946-2.073 6.385 5.43-3.946 5.432 3.946-2.075-6.385 5.43-3.946h-6.712l-2.074-6.385-2.075 6.385H49.44zM87.24 109.72l5.43 3.946-2.073 6.385 5.43-3.946 5.432 3.946-2.075-6.385 5.43-3.946h-6.712l-2.074-6.385-2.075 6.385H87.24zM125.04 109.72l5.431 3.946-2.074 6.385 5.431-3.946 5.431 3.946-2.075-6.385 5.431-3.946h-6.713l-2.074-6.385-2.075 6.385h-6.713zM162.84 109.72l5.431 3.946-2.074 6.385 5.431-3.946 5.431 3.946-2.075-6.385 5.431-3.946h-6.713l-2.074-6.385-2.075 6.385h-6.713zM200.639 109.72l5.431 3.946-2.074 6.385 5.431-3.946 5.431 3.946-2.075-6.385 5.431-3.946h-6.713l-2.074-6.385-2.075 6.385h-6.713zM11.178 141.982l5.431 3.946-2.074 6.385 5.431-3.946 5.431 3.946-2.075-6.385 5.431-3.946H22.04l-2.074-6.385-2.075 6.385h-6.713zM48.978 141.982l5.43 3.946-2.073 6.385 5.43-3.946 5.432 3.946-2.075-6.385 5.43-3.946H59.84l-2.074-6.385-2.075 6.385h-6.713zM86.778 141.982l5.431 3.946-2.074 6.385 5.431-3.946 5.431 3.946-2.075-6.385 5.431-3.946H97.64l-2.074-6.385-2.075 6.385h-6.713zM124.578 141.982l5.431 3.946-2.074 6.385 5.431-3.946 5.431 3.946-2.075-6.385 5.431-3.946h-6.713l-2.074-6.385-2.075 6.385h-6.713zM162.378 141.982l5.431 3.946-2.074 6.385 5.431-3.946 5.431 3.946-2.075-6.385 5.431-3.946h-6.713l-2.074-6.385-2.075 6.385h-6.713zM200.178 141.982l5.431 3.946-2.074 6.385 5.431-3.946 5.431 3.946-2.075-6.385 5.431-3.946h-6.713l-2.074-6.385-2.075 6.385h-6.713zM30.19 93.616l5.431 3.946-2.074 6.385L38.978 100l5.431 3.946-2.075-6.385 5.431-3.946h-6.713l-2.074-6.385-2.075 6.385H30.19zM67.99 93.616l5.431 3.946-2.074 6.385L76.778 100l5.431 3.946-2.075-6.385 5.431-3.946h-6.713l-2.074-6.385-2.075 6.385H67.99zM105.791 93.616l5.431 3.946-2.074 6.385 5.431-3.946 5.431 3.946-2.075-6.385 5.431-3.946h-6.713l-2.074-6.385-2.075 6.385h-6.713zM143.59 93.616l5.431 3.946-2.074 6.385 5.431-3.946 5.431 3.946-2.075-6.385 5.431-3.946h-6.713l-2.074-6.385-2.075 6.385h-6.713zM181.39 93.616l5.431 3.946-2.074 6.385 5.431-3.946 5.431 3.946-2.075-6.385 5.431-3.946h-6.713l-2.074-6.385-2.075 6.385h-6.713zM30.078 125.828l5.431 3.946-2.074 6.385 5.431-3.946 5.431 3.946-2.075-6.385 5.431-3.946H40.94l-2.074-6.385-2.075 6.385h-6.713zM67.879 125.828l5.43 3.946-2.073 6.385 5.43-3.946 5.432 3.946-2.076-6.385 5.431-3.946H78.74l-2.073-6.385-2.076 6.385H67.88zM105.679 125.828l5.431 3.946-2.074 6.385 5.431-3.946 5.431 3.946-2.075-6.385 5.431-3.946h-6.713l-2.074-6.385-2.075 6.385h-6.713zM143.478 125.828l5.431 3.946-2.074 6.385 5.431-3.946 5.431 3.946-2.075-6.385 5.431-3.946h-6.713l-2.074-6.385-2.075 6.385h-6.713zM181.278 125.828l5.431 3.946-2.074 6.385 5.431-3.946 5.431 3.946-2.075-6.385 5.431-3.946h-6.713l-2.074-6.385-2.075 6.385h-6.713z" fill="#fff" fill-rule="nonzero"/>
    </g>
  </g>
</svg>
