<!-- Canada -->
<svg xmlns="http://www.w3.org/2000/svg" viewBox="0 0 300 300">
  <g buffered-rendering="static">
    <path d="M150 0C67.157 0 0 67.157 0 150s67.157 150 150 150 150-67.157 150-150S232.843 0 150 0z" fill="#fff"/>
    <path d="M50 38.195v223.61C19.316 234.346 0 194.429 0 150S19.316 65.654 50 38.195zm200 0c30.684 27.459 50 67.376 50 111.805s-19.316 84.346-50 111.805V38.195z" fill="red"/>
    <path d="M149.997 68.75L136.352 94.2c-1.549 2.766-4.323 2.51-7.097.965l-9.879-5.116 7.363 39.091c1.548 7.142-3.419 7.142-5.871 4.054l-17.241-19.301-2.798 9.802c-.323 1.287-1.743 2.639-3.871 2.317l-21.801-4.584 5.726 20.818c1.226 4.632 2.182 6.55-1.238 7.772l-7.77 3.652 37.528 30.483c1.486 1.153 2.236 3.227 1.708 5.105l-3.285 10.779c12.922-1.489 24.5-3.73 37.428-5.11 1.141-.122 3.052 1.761 3.044 3.084l-1.712 39.489h6.282l-.989-39.405c-.007-1.322 1.726-3.29 2.867-3.168 12.928 1.38 24.506 3.621 37.428 5.11l-3.285-10.779c-.528-1.878.222-3.952 1.708-5.104l37.528-30.484-7.771-3.652c-3.419-1.222-2.463-3.14-1.237-7.772l5.726-20.818-21.801 4.584c-2.129.322-3.548-1.03-3.871-2.317l-2.799-9.802-17.24 19.301c-2.452 3.088-7.419 3.088-5.871-4.054l7.363-39.091-9.879 5.116c-2.774 1.545-5.548 1.801-7.097-.965" fill="red" fill-rule="nonzero"/>
  </g>
</svg>